<?xml version="1.0" encoding="UTF-8" standalone="no"?>
<!DOCTYPE svg PUBLIC "-//W3C//DTD SVG 1.1//EN" "http://www.w3.org/Graphics/SVG/1.1/DTD/svg11.dtd">
<svg width="100%" height="100%" viewBox="0 0 1257 286" version="1.1" xmlns="http://www.w3.org/2000/svg" xmlns:xlink="http://www.w3.org/1999/xlink" xml:space="preserve" xmlns:serif="http://www.serif.com/" style="fill-rule:evenodd;clip-rule:evenodd;stroke-linejoin:round;stroke-miterlimit:2;">
    <g transform="matrix(1,0,0,1,-1684.698649,-832.451931)">
        <g transform="matrix(0.978297,0,0,0.967089,801.964318,2121.497987)">
            <g id="taxiluxride-logo-dark" serif:id="taxiluxride logo dark" transform="matrix(1.022184,0,0,1.034031,-123.993428,-2213.385327)">
                <g transform="matrix(1,0,0,1,161.294963,16.984432)">
                    <path d="M842.742,834.509L898.438,834.509L1039.808,992.321L931.797,1119.94L878.748,1119.94L981.925,992.321L842.742,834.509Z" style="fill:rgb(255,219,58);"/>
                </g>
                <g transform="matrix(1,0,0,1,259.828126,16.984432)">
                    <path d="M842.742,834.509L898.438,834.509L1039.808,992.321L931.797,1119.94L878.748,1119.94L981.925,992.321L842.742,834.509Z" style="fill:rgb(255,219,58);"/>
                </g>
                <g transform="matrix(0.747194,0,0,0.865991,416.381284,-2.732279)">
                    <text x="1214.911px" y="1205.369px" style="font-family:'Arial-Black', 'Arial', sans-serif;font-weight:900;font-size:153.933px;fill:white;">T<tspan x="1315.629px 1435.364px " y="1205.369px 1205.369px ">AX</tspan>I</text>
                    <text x="1666.339px" y="1205.369px" style="font-family:'Arial-Black', 'Arial', sans-serif;font-weight:900;font-size:153.933px;fill:rgb(255,219,58);">L<tspan x="1765.028px 1893.255px " y="1205.369px 1205.369px ">UX</tspan></text>
                    <g transform="matrix(153.933376,0,0,153.933376,2474.865018,1205.369184)">
                    </g>
                    <text x="2064.326px" y="1205.369px" style="font-family:'Arial-Black', 'Arial', sans-serif;font-weight:900;font-size:153.933px;fill:white;">RIDE</text>
                </g>
            </g>
        </g>
    </g>
</svg>
