<svg preserveAspectRatio="none" width="100%" height="100%" overflow="visible" style="display: block;" viewBox="0 0 20 19" fill="none" xmlns="http://www.w3.org/2000/svg">
<g id="Suitcases">
<path id="Vector" d="M8.25 3.5H11.75C11.8875 3.5 12 3.6125 12 3.75V5H8V3.75C8 3.6125 8.1125 3.5 8.25 3.5ZM6.5 3.75V17H13.5V3.75C13.5 2.78438 12.7156 2 11.75 2H8.25C7.28438 2 6.5 2.78438 6.5 3.75ZM15 5V17H16C17.1031 17 18 16.1031 18 15V7C18 5.89688 17.1031 5 16 5H15ZM5 17V5H4C2.89688 5 2 5.89688 2 7V15C2 16.1031 2.89688 17 4 17H5Z" fill="var(--fill-0, black)"/>
</g>
</svg>
